<mxfile host="app.diagrams.net" modified="2023-12-23T12:20:19.278Z" agent="Mozilla/5.0 (Windows NT 10.0; Win64; x64) AppleWebKit/537.36 (KHTML, like Gecko) Chrome/120.0.0.0 Safari/537.36" etag="p1N1t3LylD308vBZBqPF" version="22.1.11" type="google">
  <diagram name="Page-1" id="23jVx_XpDHtvs3G92Khg">
    <mxGraphModel grid="1" page="1" gridSize="10" guides="1" tooltips="1" connect="1" arrows="1" fold="1" pageScale="1" pageWidth="1100" pageHeight="850" math="0" shadow="0">
      <root>
        <mxCell id="0" />
        <mxCell id="1" parent="0" />
        <mxCell id="3djX9xKZIghsybCfASt3-6" value="" style="shape=table;startSize=0;container=1;collapsible=0;childLayout=tableLayout;" vertex="1" parent="1">
          <mxGeometry x="90" y="100" width="930" height="800" as="geometry" />
        </mxCell>
        <mxCell id="3djX9xKZIghsybCfASt3-7" value="" style="shape=tableRow;horizontal=0;startSize=0;swimlaneHead=0;swimlaneBody=0;strokeColor=inherit;top=0;left=0;bottom=0;right=0;collapsible=0;dropTarget=0;fillColor=none;points=[[0,0.5],[1,0.5]];portConstraint=eastwest;" vertex="1" parent="3djX9xKZIghsybCfASt3-6">
          <mxGeometry width="930" height="800" as="geometry" />
        </mxCell>
        <mxCell id="3djX9xKZIghsybCfASt3-8" value="" style="shape=partialRectangle;html=1;whiteSpace=wrap;connectable=0;strokeColor=inherit;overflow=hidden;fillColor=none;top=0;left=0;bottom=0;right=0;pointerEvents=1;" vertex="1" parent="3djX9xKZIghsybCfASt3-7">
          <mxGeometry width="186" height="800" as="geometry">
            <mxRectangle width="186" height="800" as="alternateBounds" />
          </mxGeometry>
        </mxCell>
        <mxCell id="3djX9xKZIghsybCfASt3-9" value="" style="shape=partialRectangle;html=1;whiteSpace=wrap;connectable=0;strokeColor=inherit;overflow=hidden;fillColor=none;top=0;left=0;bottom=0;right=0;pointerEvents=1;" vertex="1" parent="3djX9xKZIghsybCfASt3-7">
          <mxGeometry x="186" width="186" height="800" as="geometry">
            <mxRectangle width="186" height="800" as="alternateBounds" />
          </mxGeometry>
        </mxCell>
        <mxCell id="3djX9xKZIghsybCfASt3-10" value="" style="shape=partialRectangle;html=1;whiteSpace=wrap;connectable=0;strokeColor=inherit;overflow=hidden;fillColor=none;top=0;left=0;bottom=0;right=0;pointerEvents=1;" vertex="1" parent="3djX9xKZIghsybCfASt3-7">
          <mxGeometry x="372" width="186" height="800" as="geometry">
            <mxRectangle width="186" height="800" as="alternateBounds" />
          </mxGeometry>
        </mxCell>
        <mxCell id="3djX9xKZIghsybCfASt3-11" value="" style="shape=partialRectangle;html=1;whiteSpace=wrap;connectable=0;strokeColor=inherit;overflow=hidden;fillColor=none;top=0;left=0;bottom=0;right=0;pointerEvents=1;" vertex="1" parent="3djX9xKZIghsybCfASt3-7">
          <mxGeometry x="558" width="186" height="800" as="geometry">
            <mxRectangle width="186" height="800" as="alternateBounds" />
          </mxGeometry>
        </mxCell>
        <mxCell id="3djX9xKZIghsybCfASt3-12" value="" style="shape=partialRectangle;html=1;whiteSpace=wrap;connectable=0;strokeColor=inherit;overflow=hidden;fillColor=none;top=0;left=0;bottom=0;right=0;pointerEvents=1;" vertex="1" parent="3djX9xKZIghsybCfASt3-7">
          <mxGeometry x="744" width="186" height="800" as="geometry">
            <mxRectangle width="186" height="800" as="alternateBounds" />
          </mxGeometry>
        </mxCell>
        <mxCell id="3djX9xKZIghsybCfASt3-30" value="" style="endArrow=none;html=1;rounded=0;exitX=0.003;exitY=0.051;exitDx=0;exitDy=0;exitPerimeter=0;entryX=1;entryY=0.051;entryDx=0;entryDy=0;entryPerimeter=0;" edge="1" parent="3djX9xKZIghsybCfASt3-6" source="3djX9xKZIghsybCfASt3-7" target="3djX9xKZIghsybCfASt3-7">
          <mxGeometry width="50" height="50" relative="1" as="geometry">
            <mxPoint x="560" y="-50" as="sourcePoint" />
            <mxPoint x="610" y="-100" as="targetPoint" />
          </mxGeometry>
        </mxCell>
        <mxCell id="3djX9xKZIghsybCfASt3-14" value="&lt;span style=&quot;font-size: 18px;&quot;&gt;Customer&lt;/span&gt;" style="text;html=1;strokeColor=none;fillColor=none;align=center;verticalAlign=middle;whiteSpace=wrap;rounded=0;" vertex="1" parent="1">
          <mxGeometry x="150" y="103" width="60" height="30" as="geometry" />
        </mxCell>
        <mxCell id="3djX9xKZIghsybCfASt3-16" value="&lt;font style=&quot;font-size: 18px;&quot;&gt;Admin&lt;/font&gt;" style="text;html=1;strokeColor=none;fillColor=none;align=center;verticalAlign=middle;whiteSpace=wrap;rounded=0;" vertex="1" parent="1">
          <mxGeometry x="340" y="103" width="60" height="30" as="geometry" />
        </mxCell>
        <mxCell id="3djX9xKZIghsybCfASt3-21" value="&lt;font style=&quot;font-size: 18px;&quot;&gt;Quality Control&lt;/font&gt;" style="text;html=1;strokeColor=none;fillColor=none;align=center;verticalAlign=middle;whiteSpace=wrap;rounded=0;" vertex="1" parent="1">
          <mxGeometry x="487.5" y="103" width="135" height="30" as="geometry" />
        </mxCell>
        <mxCell id="3djX9xKZIghsybCfASt3-24" value="&lt;font style=&quot;font-size: 18px;&quot;&gt;Bakers&lt;/font&gt;" style="text;html=1;strokeColor=none;fillColor=none;align=center;verticalAlign=middle;whiteSpace=wrap;rounded=0;" vertex="1" parent="1">
          <mxGeometry x="710" y="103" width="60" height="30" as="geometry" />
        </mxCell>
        <mxCell id="3djX9xKZIghsybCfASt3-29" value="&lt;font style=&quot;font-size: 18px;&quot;&gt;Owner&lt;/font&gt;" style="text;html=1;strokeColor=none;fillColor=none;align=center;verticalAlign=middle;whiteSpace=wrap;rounded=0;" vertex="1" parent="1">
          <mxGeometry x="890" y="103" width="60" height="30" as="geometry" />
        </mxCell>
        <mxCell id="3djX9xKZIghsybCfASt3-31" value="" style="ellipse;whiteSpace=wrap;html=1;aspect=fixed;fillColor=#a20025;strokeColor=#6F0000;fontColor=#ffffff;" vertex="1" parent="1">
          <mxGeometry x="165" y="140" width="30" height="30" as="geometry" />
        </mxCell>
        <mxCell id="3djX9xKZIghsybCfASt3-35" style="edgeStyle=orthogonalEdgeStyle;rounded=0;orthogonalLoop=1;jettySize=auto;html=1;exitX=1;exitY=0.5;exitDx=0;exitDy=0;entryX=0;entryY=0.5;entryDx=0;entryDy=0;fillColor=#dae8fc;strokeColor=#6c8ebf;" edge="1" parent="1" source="3djX9xKZIghsybCfASt3-32" target="3djX9xKZIghsybCfASt3-34">
          <mxGeometry relative="1" as="geometry" />
        </mxCell>
        <mxCell id="3djX9xKZIghsybCfASt3-32" value="make order and fulfills the desired data details" style="rounded=0;whiteSpace=wrap;html=1;" vertex="1" parent="1">
          <mxGeometry x="120" y="190" width="120" height="60" as="geometry" />
        </mxCell>
        <mxCell id="3djX9xKZIghsybCfASt3-33" style="edgeStyle=orthogonalEdgeStyle;rounded=0;orthogonalLoop=1;jettySize=auto;html=1;exitX=0.5;exitY=1;exitDx=0;exitDy=0;startArrow=none;startFill=0;fillColor=#dae8fc;strokeColor=#6c8ebf;" edge="1" parent="1" source="3djX9xKZIghsybCfASt3-31">
          <mxGeometry relative="1" as="geometry">
            <mxPoint x="180" y="190" as="targetPoint" />
            <Array as="points">
              <mxPoint x="180" y="180" />
              <mxPoint x="180" y="180" />
            </Array>
          </mxGeometry>
        </mxCell>
        <mxCell id="3djX9xKZIghsybCfASt3-38" style="edgeStyle=orthogonalEdgeStyle;rounded=0;orthogonalLoop=1;jettySize=auto;html=1;exitX=1;exitY=0.5;exitDx=0;exitDy=0;entryX=0;entryY=0.25;entryDx=0;entryDy=0;fillColor=#dae8fc;strokeColor=#6c8ebf;" edge="1" parent="1" source="3djX9xKZIghsybCfASt3-34" target="3djX9xKZIghsybCfASt3-36">
          <mxGeometry relative="1" as="geometry" />
        </mxCell>
        <mxCell id="3djX9xKZIghsybCfASt3-34" value="receive order and ask the QC about the material availability" style="rounded=0;whiteSpace=wrap;html=1;" vertex="1" parent="1">
          <mxGeometry x="310" y="200" width="120" height="60" as="geometry" />
        </mxCell>
        <mxCell id="gmhZEH0_Y6xY2Z2CHQpY-4" style="edgeStyle=orthogonalEdgeStyle;rounded=0;orthogonalLoop=1;jettySize=auto;html=1;exitX=0.5;exitY=1;exitDx=0;exitDy=0;entryX=0.5;entryY=0;entryDx=0;entryDy=0;" edge="1" parent="1" source="3djX9xKZIghsybCfASt3-36" target="sbR0SFcSQhALMuo84SFt-1">
          <mxGeometry relative="1" as="geometry" />
        </mxCell>
        <mxCell id="3djX9xKZIghsybCfASt3-36" value="check the material availability dan inform admin" style="rounded=0;whiteSpace=wrap;html=1;" vertex="1" parent="1">
          <mxGeometry x="495" y="240" width="120" height="60" as="geometry" />
        </mxCell>
        <mxCell id="3djX9xKZIghsybCfASt3-42" style="edgeStyle=orthogonalEdgeStyle;rounded=0;orthogonalLoop=1;jettySize=auto;html=1;exitX=0;exitY=0.5;exitDx=0;exitDy=0;entryX=1;entryY=0.25;entryDx=0;entryDy=0;fillColor=#dae8fc;strokeColor=#6c8ebf;" edge="1" parent="1" source="3djX9xKZIghsybCfASt3-37" target="3djX9xKZIghsybCfASt3-40">
          <mxGeometry relative="1" as="geometry" />
        </mxCell>
        <mxCell id="3djX9xKZIghsybCfASt3-37" value="receive confirmation,&amp;nbsp; inform customer, make the invoice" style="rounded=0;whiteSpace=wrap;html=1;" vertex="1" parent="1">
          <mxGeometry x="310" y="470" width="120" height="60" as="geometry" />
        </mxCell>
        <mxCell id="3djX9xKZIghsybCfASt3-44" style="edgeStyle=orthogonalEdgeStyle;rounded=0;orthogonalLoop=1;jettySize=auto;html=1;exitX=1;exitY=0.75;exitDx=0;exitDy=0;entryX=0;entryY=0.5;entryDx=0;entryDy=0;fillColor=#dae8fc;strokeColor=#6c8ebf;" edge="1" parent="1" source="3djX9xKZIghsybCfASt3-40" target="3djX9xKZIghsybCfASt3-43">
          <mxGeometry relative="1" as="geometry" />
        </mxCell>
        <mxCell id="3djX9xKZIghsybCfASt3-40" value="receive confirmation and do payment" style="rounded=0;whiteSpace=wrap;html=1;" vertex="1" parent="1">
          <mxGeometry x="120" y="510" width="120" height="60" as="geometry" />
        </mxCell>
        <mxCell id="3djX9xKZIghsybCfASt3-46" style="edgeStyle=orthogonalEdgeStyle;rounded=0;orthogonalLoop=1;jettySize=auto;html=1;exitX=1;exitY=0.5;exitDx=0;exitDy=0;entryX=0;entryY=0.25;entryDx=0;entryDy=0;fillColor=#dae8fc;strokeColor=#6c8ebf;" edge="1" parent="1" source="3djX9xKZIghsybCfASt3-43" target="3djX9xKZIghsybCfASt3-45">
          <mxGeometry relative="1" as="geometry" />
        </mxCell>
        <mxCell id="3djX9xKZIghsybCfASt3-48" style="rounded=0;orthogonalLoop=1;jettySize=auto;html=1;exitX=1;exitY=0.25;exitDx=0;exitDy=0;entryX=0;entryY=0.25;entryDx=0;entryDy=0;fillColor=#dae8fc;strokeColor=#6c8ebf;" edge="1" parent="1" source="3djX9xKZIghsybCfASt3-43" target="3djX9xKZIghsybCfASt3-47">
          <mxGeometry relative="1" as="geometry" />
        </mxCell>
        <mxCell id="3djX9xKZIghsybCfASt3-43" value="receive payment, inform bakers" style="rounded=0;whiteSpace=wrap;html=1;" vertex="1" parent="1">
          <mxGeometry x="310" y="570" width="120" height="60" as="geometry" />
        </mxCell>
        <mxCell id="3djX9xKZIghsybCfASt3-50" style="edgeStyle=orthogonalEdgeStyle;rounded=0;orthogonalLoop=1;jettySize=auto;html=1;exitX=0;exitY=0.75;exitDx=0;exitDy=0;entryX=1;entryY=0.5;entryDx=0;entryDy=0;fillColor=#dae8fc;strokeColor=#6c8ebf;" edge="1" parent="1" source="3djX9xKZIghsybCfASt3-45" target="3djX9xKZIghsybCfASt3-49">
          <mxGeometry relative="1" as="geometry" />
        </mxCell>
        <mxCell id="3djX9xKZIghsybCfASt3-45" value="receive order, scheduling, and bake it 1 day prior to send date" style="rounded=0;whiteSpace=wrap;html=1;" vertex="1" parent="1">
          <mxGeometry x="680" y="600" width="120" height="60" as="geometry" />
        </mxCell>
        <mxCell id="3djX9xKZIghsybCfASt3-59" style="edgeStyle=orthogonalEdgeStyle;rounded=0;orthogonalLoop=1;jettySize=auto;html=1;exitX=0;exitY=0.75;exitDx=0;exitDy=0;entryX=1;entryY=0.5;entryDx=0;entryDy=0;fillColor=#dae8fc;strokeColor=#6c8ebf;" edge="1" parent="1" source="3djX9xKZIghsybCfASt3-47" target="3djX9xKZIghsybCfASt3-45">
          <mxGeometry relative="1" as="geometry" />
        </mxCell>
        <mxCell id="3djX9xKZIghsybCfASt3-47" value="receive and monitor order" style="rounded=0;whiteSpace=wrap;html=1;" vertex="1" parent="1">
          <mxGeometry x="870" y="570" width="120" height="60" as="geometry" />
        </mxCell>
        <mxCell id="3djX9xKZIghsybCfASt3-53" style="edgeStyle=orthogonalEdgeStyle;rounded=0;orthogonalLoop=1;jettySize=auto;html=1;exitX=0.5;exitY=1;exitDx=0;exitDy=0;entryX=0.5;entryY=0;entryDx=0;entryDy=0;fillColor=#dae8fc;strokeColor=#6c8ebf;" edge="1" parent="1" source="3djX9xKZIghsybCfASt3-49" target="3djX9xKZIghsybCfASt3-51">
          <mxGeometry relative="1" as="geometry" />
        </mxCell>
        <mxCell id="3djX9xKZIghsybCfASt3-49" value="received confirmation that the order is ready to be shipped on d-day" style="rounded=0;whiteSpace=wrap;html=1;" vertex="1" parent="1">
          <mxGeometry x="310" y="680" width="120" height="60" as="geometry" />
        </mxCell>
        <mxCell id="3djX9xKZIghsybCfASt3-54" style="edgeStyle=orthogonalEdgeStyle;rounded=0;orthogonalLoop=1;jettySize=auto;html=1;exitX=0;exitY=0.5;exitDx=0;exitDy=0;entryX=1;entryY=0.25;entryDx=0;entryDy=0;fillColor=#dae8fc;strokeColor=#6c8ebf;" edge="1" parent="1" source="3djX9xKZIghsybCfASt3-51" target="3djX9xKZIghsybCfASt3-52">
          <mxGeometry relative="1" as="geometry" />
        </mxCell>
        <mxCell id="3djX9xKZIghsybCfASt3-51" value="tell the customer" style="rounded=0;whiteSpace=wrap;html=1;" vertex="1" parent="1">
          <mxGeometry x="310" y="770" width="120" height="20" as="geometry" />
        </mxCell>
        <mxCell id="3djX9xKZIghsybCfASt3-62" style="edgeStyle=orthogonalEdgeStyle;rounded=0;orthogonalLoop=1;jettySize=auto;html=1;exitX=0.5;exitY=1;exitDx=0;exitDy=0;fillColor=#dae8fc;strokeColor=#6c8ebf;" edge="1" parent="1" source="3djX9xKZIghsybCfASt3-52" target="3djX9xKZIghsybCfASt3-61">
          <mxGeometry relative="1" as="geometry" />
        </mxCell>
        <mxCell id="3djX9xKZIghsybCfASt3-64" style="edgeStyle=orthogonalEdgeStyle;rounded=0;orthogonalLoop=1;jettySize=auto;html=1;exitX=1;exitY=0.75;exitDx=0;exitDy=0;entryX=0;entryY=0.5;entryDx=0;entryDy=0;fillColor=#dae8fc;strokeColor=#6c8ebf;" edge="1" parent="1" source="3djX9xKZIghsybCfASt3-52" target="3djX9xKZIghsybCfASt3-63">
          <mxGeometry relative="1" as="geometry" />
        </mxCell>
        <mxCell id="3djX9xKZIghsybCfASt3-52" value="Received order" style="rounded=0;whiteSpace=wrap;html=1;" vertex="1" parent="1">
          <mxGeometry x="120" y="790" width="120" height="20" as="geometry" />
        </mxCell>
        <mxCell id="3djX9xKZIghsybCfASt3-61" value="" style="ellipse;whiteSpace=wrap;html=1;aspect=fixed;fillColor=#a20025;strokeColor=#6F0000;fontColor=#ffffff;" vertex="1" parent="1">
          <mxGeometry x="165" y="840" width="30" height="30" as="geometry" />
        </mxCell>
        <mxCell id="3djX9xKZIghsybCfASt3-66" style="edgeStyle=orthogonalEdgeStyle;rounded=0;orthogonalLoop=1;jettySize=auto;html=1;exitX=0.5;exitY=1;exitDx=0;exitDy=0;entryX=0.5;entryY=0;entryDx=0;entryDy=0;fillColor=#dae8fc;strokeColor=#6c8ebf;" edge="1" parent="1" source="3djX9xKZIghsybCfASt3-63" target="3djX9xKZIghsybCfASt3-65">
          <mxGeometry relative="1" as="geometry" />
        </mxCell>
        <mxCell id="3djX9xKZIghsybCfASt3-63" value="order done confirmed" style="rounded=0;whiteSpace=wrap;html=1;" vertex="1" parent="1">
          <mxGeometry x="870" y="810" width="120" height="20" as="geometry" />
        </mxCell>
        <mxCell id="3djX9xKZIghsybCfASt3-65" value="" style="ellipse;whiteSpace=wrap;html=1;aspect=fixed;fillColor=#a20025;strokeColor=#6F0000;fontColor=#ffffff;" vertex="1" parent="1">
          <mxGeometry x="915" y="840" width="30" height="30" as="geometry" />
        </mxCell>
        <mxCell id="gmhZEH0_Y6xY2Z2CHQpY-1" style="edgeStyle=orthogonalEdgeStyle;rounded=0;orthogonalLoop=1;jettySize=auto;html=1;exitX=0;exitY=0.5;exitDx=0;exitDy=0;" edge="1" parent="1" source="sbR0SFcSQhALMuo84SFt-1" target="sbR0SFcSQhALMuo84SFt-2">
          <mxGeometry relative="1" as="geometry" />
        </mxCell>
        <mxCell id="gmhZEH0_Y6xY2Z2CHQpY-6" style="edgeStyle=orthogonalEdgeStyle;rounded=0;orthogonalLoop=1;jettySize=auto;html=1;exitX=0.5;exitY=1;exitDx=0;exitDy=0;entryX=1;entryY=0.5;entryDx=0;entryDy=0;strokeColor=#007FFF;" edge="1" parent="1" source="sbR0SFcSQhALMuo84SFt-1" target="3djX9xKZIghsybCfASt3-37">
          <mxGeometry relative="1" as="geometry" />
        </mxCell>
        <mxCell id="sbR0SFcSQhALMuo84SFt-1" value="" style="rhombus;whiteSpace=wrap;html=1;" vertex="1" parent="1">
          <mxGeometry x="535" y="320" width="40" height="40" as="geometry" />
        </mxCell>
        <mxCell id="gmhZEH0_Y6xY2Z2CHQpY-2" style="edgeStyle=orthogonalEdgeStyle;rounded=0;orthogonalLoop=1;jettySize=auto;html=1;exitX=0;exitY=0.5;exitDx=0;exitDy=0;entryX=1;entryY=0.5;entryDx=0;entryDy=0;" edge="1" parent="1" source="sbR0SFcSQhALMuo84SFt-2" target="sbR0SFcSQhALMuo84SFt-3">
          <mxGeometry relative="1" as="geometry" />
        </mxCell>
        <mxCell id="sbR0SFcSQhALMuo84SFt-2" value="receive confirmation, inform customer that it&#39;s not available" style="rounded=0;whiteSpace=wrap;html=1;" vertex="1" parent="1">
          <mxGeometry x="310" y="310" width="120" height="60" as="geometry" />
        </mxCell>
        <mxCell id="gmhZEH0_Y6xY2Z2CHQpY-3" style="edgeStyle=orthogonalEdgeStyle;rounded=0;orthogonalLoop=1;jettySize=auto;html=1;exitX=0.5;exitY=1;exitDx=0;exitDy=0;" edge="1" parent="1" source="sbR0SFcSQhALMuo84SFt-3" target="sbR0SFcSQhALMuo84SFt-4">
          <mxGeometry relative="1" as="geometry" />
        </mxCell>
        <mxCell id="sbR0SFcSQhALMuo84SFt-3" value="receive confirmation and finish transaction" style="rounded=0;whiteSpace=wrap;html=1;" vertex="1" parent="1">
          <mxGeometry x="120" y="330" width="120" height="60" as="geometry" />
        </mxCell>
        <mxCell id="sbR0SFcSQhALMuo84SFt-4" value="" style="ellipse;whiteSpace=wrap;html=1;aspect=fixed;fillColor=#a20025;strokeColor=#6F0000;fontColor=#ffffff;" vertex="1" parent="1">
          <mxGeometry x="165" y="425" width="30" height="30" as="geometry" />
        </mxCell>
        <mxCell id="gmhZEH0_Y6xY2Z2CHQpY-7" value="&lt;span style=&quot;font-size: 11px;&quot;&gt;Available&lt;/span&gt;" style="text;html=1;strokeColor=none;fillColor=none;align=center;verticalAlign=middle;whiteSpace=wrap;rounded=0;fontSize=11;" vertex="1" parent="1">
          <mxGeometry x="575" y="400" width="45" height="15" as="geometry" />
        </mxCell>
        <mxCell id="gmhZEH0_Y6xY2Z2CHQpY-9" value="&lt;span style=&quot;font-size: 11px;&quot;&gt;Material Unavailable&lt;/span&gt;" style="text;html=1;strokeColor=none;fillColor=none;align=center;verticalAlign=middle;whiteSpace=wrap;rounded=0;fontSize=11;" vertex="1" parent="1">
          <mxGeometry x="480" y="315" width="45" height="15" as="geometry" />
        </mxCell>
      </root>
    </mxGraphModel>
  </diagram>
</mxfile>
